<?xml version="1.0" standalone="no"?>
<!DOCTYPE svg PUBLIC "-//W3C//DTD SVG 20010904//EN"
 "http://www.w3.org/TR/2001/REC-SVG-20010904/DTD/svg10.dtd">
<svg version="1.0" xmlns="http://www.w3.org/2000/svg"
 width="1280.000000pt" height="1186.000000pt" viewBox="0 0 1280.000000 1186.000000"
 preserveAspectRatio="xMidYMid meet">
<g transform="translate(0.000000,1186.000000) scale(0.100000,-0.100000)"
fill="#000000" stroke="none">
<path d="M6223 11642 c-406 -862 -1862 -3924 -1871 -3935 -10 -11 -364 -13
-2182 -9 l-2170 5 0 -21 c0 -12 23 -42 57 -74 31 -29 735 -702 1565 -1496
1470 -1408 1508 -1445 1508 -1480 0 -20 -5 -66 -10 -102 -5 -36 -43 -326 -85
-645 -42 -319 -98 -749 -125 -955 -43 -327 -84 -642 -221 -1685 -16 -126 -59
-452 -94 -722 -36 -271 -65 -500 -65 -508 0 -16 30 -20 45 -6 6 5 370 207 810
449 440 242 1312 721 1938 1066 625 344 1141 626 1146 626 4 0 900 -461 1990
-1025 1089 -564 1986 -1025 1991 -1025 6 0 10 2 10 4 0 3 -82 535 -320 2071
-78 501 -197 1272 -265 1715 -69 443 -127 816 -130 829 -8 30 -151 -112 1635
1615 778 752 1416 1375 1418 1385 3 17 -89 18 -2180 25 -1201 4 -2186 11
-2189 14 -4 4 -471 928 -1039 2055 -749 1485 -1037 2047 -1049 2047 -11 -1
-47 -66 -118 -218z m917 -1507 c430 -852 883 -1751 1007 -1998 125 -246 231
-452 238 -457 8 -6 651 -11 1836 -12 1003 -1 1957 -4 2119 -7 l295 -6 -1488
-1439 c-818 -791 -1487 -1441 -1487 -1443 0 -3 72 -472 160 -1042 89 -570 222
-1427 296 -1906 74 -478 159 -1031 190 -1228 30 -198 54 -360 52 -362 -2 -2
-505 256 -1118 574 -613 317 -1488 769 -1943 1005 l-829 428 -51 -28 c-29 -15
-893 -491 -1921 -1056 -1028 -566 -1870 -1027 -1871 -1026 -2 2 19 172 46 378
89 676 137 1047 209 1595 82 624 210 1607 276 2105 25 190 49 374 54 409 5 36
7 68 4 73 -6 10 -1319 1268 -2487 2383 -305 292 -556 533 -556 537 -1 5 952 9
2116 10 l2117 3 877 1850 c1121 2363 1058 2230 1068 2219 5 -5 361 -706 791
-1559z"/>
<path d="M5535 8873 l-810 -1688 -1779 4 c-1568 3 -1778 2 -1774 -11 1 -9 575
-529 1273 -1157 699 -628 1274 -1147 1278 -1154 5 -7 -95 -782 -237 -1829
-135 -1000 -246 -1829 -246 -1844 0 -20 4 -25 16 -20 14 5 469 247 2458 1307
401 214 735 389 742 389 8 0 743 -364 1634 -810 890 -445 1621 -806 1624 -802
2 4 -128 830 -289 1837 -161 1007 -291 1833 -288 1837 2 4 564 517 1249 1138
684 622 1244 1135 1244 1140 0 6 -373 11 -992 11 -546 1 -1350 5 -1787 8
l-794 6 -846 1659 c-466 913 -851 1661 -857 1663 -5 2 -374 -756 -819 -1684z"/>
</g>
</svg>
